<svg xmlns="http://www.w3.org/2000/svg" xmlns:xlink="http://www.w3.org/1999/xlink" width="500" zoomAndPan="magnify" viewBox="0 0 375 374.999991" height="500" preserveAspectRatio="xMidYMid meet" version="1.0"><defs><clipPath id="f6e6fcccb7"><path d="M 297 214 L 334 214 L 334 292.164062 L 297 292.164062 Z M 297 214 " clip-rule="nonzero"/></clipPath></defs><path fill="#414042" d="M 72.238281 159.078125 C 73.238281 157.152344 74.285156 155.257812 75.378906 153.382812 C 76.472656 151.511719 77.609375 149.667969 78.796875 147.851562 C 79.980469 146.039062 81.210938 144.253906 82.484375 142.5 C 83.753906 140.742188 85.070312 139.023438 86.429688 137.332031 C 87.789062 135.644531 89.1875 133.992188 90.628906 132.371094 C 92.070312 130.753906 93.550781 129.171875 95.070312 127.625 C 96.589844 126.082031 98.144531 124.574219 99.738281 123.105469 C 101.332031 121.640625 102.960938 120.210938 104.625 118.824219 C 106.292969 117.4375 107.988281 116.09375 109.71875 114.792969 C 111.453125 113.492188 113.214844 112.234375 115.007812 111.019531 C 116.800781 109.804688 118.625 108.636719 120.476562 107.511719 C 122.328125 106.390625 124.207031 105.3125 126.113281 104.28125 C 128.015625 103.253906 129.945312 102.269531 131.902344 101.335938 C 133.855469 100.402344 135.832031 99.519531 137.828125 98.683594 C 139.824219 97.847656 141.84375 97.0625 143.878906 96.328125 C 145.917969 95.59375 147.96875 94.910156 150.039062 94.277344 C 152.109375 93.644531 154.195312 93.0625 156.296875 92.535156 C 158.394531 92.007812 160.507812 91.53125 162.628906 91.105469 C 164.753906 90.683594 166.882812 90.3125 169.027344 89.996094 C 171.167969 89.679688 173.316406 89.414062 175.46875 89.203125 C 177.625 88.992188 179.78125 88.835938 181.945312 88.734375 C 184.105469 88.632812 186.269531 88.582031 188.433594 88.585938 C 190.601562 88.59375 192.761719 88.652344 194.925781 88.761719 C 197.085938 88.875 199.246094 89.042969 201.398438 89.261719 C 203.550781 89.480469 205.699219 89.757812 207.839844 90.082031 C 209.976562 90.410156 212.109375 90.789062 214.230469 91.222656 C 216.351562 91.65625 218.460938 92.140625 220.558594 92.679688 C 222.652344 93.21875 224.734375 93.808594 226.804688 94.449219 C 228.871094 95.09375 230.921875 95.785156 232.957031 96.527344 C 234.988281 97.273438 237.003906 98.066406 238.996094 98.910156 C 240.992188 99.757812 242.960938 100.648438 244.914062 101.59375 C 246.863281 102.535156 248.785156 103.523438 250.6875 104.5625 L 277.507812 104.5625 C 275.3125 102.851562 273.070312 101.207031 270.78125 99.625 C 268.492188 98.042969 266.15625 96.53125 263.78125 95.082031 C 261.40625 93.632812 258.992188 92.257812 256.535156 90.949219 C 254.082031 89.640625 251.589844 88.402344 249.0625 87.234375 C 246.539062 86.070312 243.980469 84.976562 241.394531 83.960938 C 238.804688 82.941406 236.191406 81.996094 233.546875 81.128906 C 230.90625 80.261719 228.242188 79.46875 225.554688 78.753906 C 222.867188 78.039062 220.160156 77.398438 217.433594 76.839844 C 214.710938 76.28125 211.972656 75.796875 209.222656 75.394531 C 206.46875 74.992188 203.710938 74.667969 200.941406 74.425781 C 198.167969 74.179688 195.394531 74.015625 192.617188 73.929688 C 189.835938 73.847656 187.054688 73.839844 184.277344 73.917969 C 181.496094 73.992188 178.722656 74.144531 175.949219 74.378906 C 173.179688 74.613281 170.417969 74.929688 167.664062 75.320312 C 164.910156 75.714844 162.171875 76.1875 159.445312 76.734375 C 156.71875 77.285156 154.011719 77.914062 151.320312 78.621094 C 148.632812 79.328125 145.964844 80.109375 143.320312 80.96875 C 140.671875 81.828125 138.054688 82.761719 135.464844 83.769531 C 132.871094 84.78125 130.308594 85.863281 127.78125 87.019531 C 125.25 88.175781 122.757812 89.40625 120.296875 90.707031 C 117.835938 92.003906 115.417969 93.375 113.035156 94.8125 C 110.652344 96.253906 108.316406 97.757812 106.019531 99.332031 C 103.726562 100.90625 101.476562 102.542969 99.277344 104.246094 C 97.074219 105.949219 94.925781 107.714844 92.824219 109.539062 C 90.722656 111.363281 88.675781 113.25 86.683594 115.195312 C 84.691406 117.136719 82.757812 119.136719 80.878906 121.191406 C 79 123.246094 77.179688 125.351562 75.425781 127.511719 C 73.667969 129.671875 71.972656 131.878906 70.339844 134.136719 C 68.710938 136.390625 67.144531 138.695312 65.644531 141.039062 C 64.144531 143.386719 62.710938 145.773438 61.351562 148.203125 C 59.988281 150.632812 58.695312 153.097656 57.472656 155.601562 C 56.25 158.101562 55.101562 160.640625 54.023438 163.207031 C 60.023438 161.503906 66.09375 160.128906 72.238281 159.078125 Z M 72.238281 159.078125 " fill-opacity="1" fill-rule="nonzero"/><path fill="#d32e2e" d="M 343.660156 168.914062 L 304.421875 168.914062 L 316.109375 142.464844 C 316.589844 141.359375 317.222656 140.34375 318 139.421875 C 318.777344 138.5 319.671875 137.707031 320.679688 137.046875 C 321.6875 136.386719 322.769531 135.882812 323.921875 135.535156 C 325.078125 135.191406 326.257812 135.015625 327.460938 135.015625 L 366.699219 135.015625 L 355.015625 161.460938 C 354.53125 162.570312 353.902344 163.582031 353.125 164.503906 C 352.347656 165.429688 351.453125 166.21875 350.445312 166.882812 C 349.4375 167.542969 348.355469 168.046875 347.199219 168.390625 C 346.046875 168.738281 344.867188 168.910156 343.660156 168.914062 Z M 343.660156 168.914062 " fill-opacity="1" fill-rule="nonzero"/><path fill="#414042" d="M 290.390625 222.34375 L 36.53125 222.34375 C 21.339844 222.34375 13.683594 232.015625 10.472656 237.773438 C 10.355469 237.976562 8.839844 249.003906 8.613281 253.429688 C 8.191406 261.753906 15.296875 268.554688 23.613281 268.609375 L 51.230469 268.609375 C 52.160156 270.25 53.195312 271.824219 54.332031 273.328125 C 55.46875 274.832031 56.699219 276.253906 58.023438 277.597656 C 59.347656 278.941406 60.757812 280.1875 62.246094 281.34375 C 63.734375 282.5 65.292969 283.554688 66.917969 284.503906 C 68.546875 285.453125 70.230469 286.292969 71.96875 287.023438 C 73.707031 287.75 75.484375 288.359375 77.300781 288.855469 C 79.121094 289.347656 80.964844 289.71875 82.828125 289.96875 C 84.695312 290.21875 86.574219 290.34375 88.457031 290.347656 C 90.339844 290.347656 92.214844 290.226562 94.082031 289.980469 C 95.949219 289.738281 97.792969 289.371094 99.613281 288.878906 C 101.433594 288.390625 103.210938 287.785156 104.953125 287.058594 C 106.691406 286.335938 108.375 285.5 110.007812 284.554688 C 111.636719 283.605469 113.195312 282.558594 114.6875 281.40625 C 116.179688 280.25 117.589844 279.007812 118.917969 277.667969 C 120.246094 276.328125 121.480469 274.90625 122.621094 273.40625 C 123.761719 271.902344 124.796875 270.332031 125.730469 268.695312 L 217.078125 268.789062 C 218.027344 268.792969 218.957031 268.660156 219.867188 268.390625 C 220.777344 268.121094 221.628906 267.726562 222.421875 267.210938 C 223.21875 266.691406 223.921875 266.070312 224.539062 265.347656 C 225.152344 264.625 225.652344 263.828125 226.035156 262.957031 L 229.09375 256.007812 L 267.46875 256.007812 C 268.667969 256.007812 269.839844 255.835938 270.988281 255.496094 C 272.136719 255.152344 273.214844 254.652344 274.21875 254 C 275.21875 253.34375 276.109375 252.558594 276.886719 251.640625 C 277.660156 250.726562 278.289062 249.71875 278.773438 248.621094 L 290.296875 222.492188 L 290.667969 222.289062 Z M 290.390625 222.34375 " fill-opacity="1" fill-rule="nonzero"/><path fill="#c62828" d="M 229.0625 208.410156 L 230.921875 204.152344 L 265.972656 204.152344 C 266.746094 204.152344 267.519531 204.097656 268.289062 203.988281 C 269.054688 203.878906 269.8125 203.710938 270.554688 203.492188 C 271.300781 203.273438 272.023438 203 272.726562 202.675781 C 273.433594 202.351562 274.109375 201.976562 274.761719 201.554688 C 275.414062 201.132812 276.03125 200.664062 276.613281 200.152344 C 277.195312 199.640625 277.738281 199.089844 278.242188 198.496094 C 278.75 197.90625 279.207031 197.28125 279.621094 196.625 C 280.035156 195.96875 280.398438 195.285156 280.714844 194.574219 L 295.851562 160.226562 L 250.285156 160.226562 L 267.703125 120.699219 L 205.375 120.699219 C 180.753906 120.699219 149.820312 152.414062 135.109375 161.824219 C 120.8125 165.976562 83.808594 163.707031 52.578125 173.882812 C 31.15625 180.875 20.042969 199.640625 14.339844 218.648438 C 17.605469 216.433594 21.128906 214.761719 24.910156 213.632812 C 28.691406 212.503906 32.554688 211.96875 36.496094 212.027344 L 223.484375 212.027344 C 224.074219 212.03125 224.652344 211.949219 225.21875 211.78125 C 225.785156 211.613281 226.3125 211.371094 226.808594 211.050781 C 227.304688 210.726562 227.742188 210.34375 228.125 209.894531 C 228.511719 209.445312 228.820312 208.949219 229.0625 208.410156 Z M 229.0625 208.410156 " fill-opacity="1" fill-rule="nonzero"/><path fill="#e53a35" d="M 323.722656 204.910156 L 300.355469 204.910156 L 307.3125 189.136719 C 307.601562 188.480469 307.980469 187.875 308.445312 187.328125 C 308.910156 186.78125 309.441406 186.3125 310.042969 185.917969 C 310.644531 185.527344 311.285156 185.226562 311.972656 185.019531 C 312.660156 184.816406 313.363281 184.710938 314.078125 184.707031 L 337.445312 184.707031 L 330.488281 200.523438 C 330.195312 201.175781 329.816406 201.773438 329.347656 202.316406 C 328.882812 202.859375 328.351562 203.324219 327.75 203.714844 C 327.152344 204.101562 326.507812 204.398438 325.824219 204.601562 C 325.136719 204.804688 324.4375 204.90625 323.722656 204.910156 Z M 323.722656 204.910156 " fill-opacity="1" fill-rule="nonzero"/><path fill="#c62828" d="M 299.453125 139.175781 L 270.710938 139.175781 L 279.207031 119.804688 C 279.5625 118.996094 280.027344 118.257812 280.597656 117.585938 C 281.167969 116.910156 281.824219 116.335938 282.5625 115.851562 C 283.300781 115.371094 284.089844 115.003906 284.933594 114.753906 C 285.78125 114.503906 286.644531 114.375 287.523438 114.375 L 316.257812 114.375 L 307.757812 133.746094 C 307.402344 134.554688 306.941406 135.292969 306.371094 135.964844 C 305.800781 136.636719 305.144531 137.214844 304.410156 137.695312 C 303.671875 138.175781 302.882812 138.542969 302.039062 138.796875 C 301.195312 139.046875 300.332031 139.175781 299.453125 139.175781 Z M 299.453125 139.175781 " fill-opacity="1" fill-rule="nonzero"/><g clip-path="url(#f6e6fcccb7)"><path fill="#414042" d="M 297.019531 292.171875 L 314.398438 292.171875 C 317.542969 286.683594 320.320312 281.007812 322.722656 275.15625 C 325.128906 269.300781 327.140625 263.3125 328.765625 257.195312 C 330.386719 251.074219 331.605469 244.875 332.417969 238.597656 C 333.230469 232.316406 333.632812 226.011719 333.621094 219.679688 C 333.621094 218.042969 333.621094 216.402344 333.527344 214.765625 L 318.816406 214.765625 C 318.878906 216.402344 318.945312 218.042969 318.945312 219.679688 C 318.949219 226.097656 318.484375 232.480469 317.546875 238.828125 C 316.613281 245.175781 315.214844 251.417969 313.359375 257.558594 C 311.5 263.699219 309.203125 269.671875 306.464844 275.472656 C 303.726562 281.273438 300.578125 286.839844 297.019531 292.171875 Z M 297.019531 292.171875 " fill-opacity="1" fill-rule="nonzero"/></g></svg>